<?xml version="1.0" encoding="utf-8"?>
<!-- Generator: Adobe Illustrator 23.0.2, SVG Export Plug-In . SVG Version: 6.00 Build 0)  -->
<svg version="1.1" id="Layer_1" xmlns="http://www.w3.org/2000/svg" xmlns:xlink="http://www.w3.org/1999/xlink" x="0px" y="0px"
	 viewBox="0 0 183 196" width="183" height="196" style="enable-background:new 0 0 183 196;" xml:space="preserve">
<style type="text/css">
	.st0{fill:#48B64E;}
	.st1{fill:#177D19;}
	.st2{fill:#FFFFFF;}
	.st3{enable-background:new;}
	.st4{fill:#FFC700;}
</style>
<path class="st0" d="M87.7,166.6c4.6-0.2,6.5,1.8,6.4,6.4c-0.1,6.2,0.2,12.4,0.1,18.6c-0.1,3.5,1.2,4.6,4.6,4.6
	c9.6-0.1,19.2-0.2,28.8,0l22.1,0c3.8,0.1,6.9,0.2,6.7-5.4c-0.4-12.8,0-25.6-0.2-38.3c-0.1-4.7,1.6-8.2,5.2-11.2
	c19.6-16.4,26.6-42.1,18.1-65.7c-8.3-23.2-20.8-39.1-55.4-39.1c-43.3,0-56.2,17.7-58.8,42.7c-0.4,3.8-0.6,7.7-0.6,11.8
	c0,5.2-10.4,19.8-13,26.4c-2.2,5.5-0.8,8.1,5.2,7.8c5.9-0.2,8,1.7,7.6,7.6v10.8C64.4,156.4,74.9,166.7,87.7,166.6L87.7,166.6z"/>
<path class="st1" d="M161.4,141.1c13.6-11.4,21.1-27.2,21.6-43.6l-39.7-39.7L84.8,95l71.3,71.4c0-4.7,0-9.4,0-14
	C156.1,147.6,157.8,144.1,161.4,141.1z"/>
<g id="Z2htyS_1_">
	<g>
		<path class="st2" d="M172.4,94.8c0,1.8,0,3.6,0,5.4c-0.1,0.6-0.3,1.1-0.4,1.7c-0.9,5.5-3.5,11-11.5,11.1c-0.2,0-0.3,0.1-0.5,0.2
			c-0.1,5-3.4,9.3-8,10.7c-3.1,0.9-6.2,1.6-9.5,1.2c-1.9-0.3-3.8-0.3-5.9-0.5c0.6,1.7,1.1,3.4,1.6,5.1c0.4,1.3,0.1,2.1-1.3,2.5
			c-0.5,0-1,0-1.6,0c-1.1-1.1-2.6-1.9-3.1-3.2c-2.3-5.1-5.1-9.8-8.7-14.1c-0.6-0.8-1.6-2.3-2.5-2.7c-1.1-0.5-3.3,0-4.5,0.1
			c-3,0.2-6.1,0.4-9.1-0.3c-3.3-0.8-6.1-2.8-8.8-4.8c-0.7-0.6-1.5-1.2-2-2c-1-1.5-0.6-3.4-1.8-4.8c-1.5-1.8-3.8-2-5.9-2.7
			c-2.2-0.8-4.3-2.1-5.8-3.9c-1.6-2-2.6-4.3-3.7-6.6c-0.8-1.7-1.9-3.3-1.8-5.2c0-0.2,0.1-0.4,0.2-0.7c0.1-0.2,0.2-0.4,0.3-0.6
			c0.5-1-0.3-2.1-0.3-3.1c0.1-1.1,0.7-2.4,1.1-3.5c0.9-2.5,2.1-4.9,4.1-6.8c1.8-1.7,3.6-3.4,5.4-5c1.6-1.5,3.2-3.3,5.4-4
			c1-0.3,2-0.3,3-0.8c1.1-0.5,2-1.3,3.1-1.9c3.3-2,7.2-2.3,10.9-2.5c2.9-0.1,5.7-0.4,8.6-0.7c2.5-0.3,5.2-1,7.7-0.6
			c1.3,0.2,2.4,0.7,3.7,1c2.1,0.6,4.3,0.5,6.4,1c2.2,0.5,4.3,1.2,6.4,1.8c4.3,1.2,8.3,2.9,11.2,6.5c2.1,2.5,3.9,5.2,6.5,7.3
			c1.2,1,2.2,2.6,2.7,4.1c0.6,1.9,1.6,3.4,2.7,5c2.4,3.7,4.6,7.6,5.1,12.2C172.1,92,172.2,93.4,172.4,94.8z"/>
	</g>
</g>
<g>
	<g class="st3">
		<path class="st1" d="M131.5,92.2h-12c-1.5,0-2.7-1.2-2.7-2.7v-0.8c0-0.6,0.2-1.2,0.6-1.7l6.9-8.8h-4.6c-1.5,0-2.7-1.2-2.7-2.7v-1
			c0-1.5,1.2-2.7,2.7-2.7h11.7c1.5,0,2.7,1.2,2.7,2.7v0.8c0,0.6-0.2,1.2-0.6,1.7l-6.9,8.8h5c1.5,0,2.7,1.2,2.7,2.7v1
			C134.2,91,133,92.2,131.5,92.2z"/>
	</g>
	<g>
		<g class="st3">
			<path class="st1" d="M145.1,78.9h-6.3c-0.8,0-1.4-0.6-1.4-1.4v-0.4c0-0.3,0.1-0.6,0.3-0.9l3.6-4.6h-2.4c-0.8,0-1.4-0.6-1.4-1.4
				v-0.5c0-0.8,0.6-1.4,1.4-1.4h6.1c0.8,0,1.4,0.6,1.4,1.4v0.4c0,0.3-0.1,0.6-0.3,0.9l-3.6,4.6h2.6c0.8,0,1.4,0.6,1.4,1.4v0.5
				C146.6,78.3,145.9,78.9,145.1,78.9z"/>
		</g>
	</g>
	<g>
		<g class="st3">
			<path class="st1" d="M112.5,97.7h-6.3c-0.8,0-1.4-0.6-1.4-1.4v-0.4c0-0.3,0.1-0.6,0.3-0.9l3.6-4.6h-2.4c-0.8,0-1.4-0.6-1.4-1.4
				v-0.5c0-0.8,0.6-1.4,1.4-1.4h6.1c0.8,0,1.4,0.6,1.4,1.4v0.4c0,0.3-0.1,0.6-0.3,0.9l-3.6,4.6h2.6c0.8,0,1.4,0.6,1.4,1.4v0.5
				C113.9,97.1,113.3,97.7,112.5,97.7z"/>
		</g>
	</g>
</g>
<g>
	<g>
		<path class="st4" d="M37.1,10.2c0.7,0,1.2-0.5,1.2-1.2V1.2c0-0.7-0.5-1.2-1.2-1.2s-1.2,0.5-1.2,1.2V9
			C35.9,9.7,36.5,10.2,37.1,10.2z"/>
	</g>
	<g>
		<path class="st4" d="M73,35.9h-7.8c-0.7,0-1.2,0.5-1.2,1.2s0.5,1.2,1.2,1.2H73c0.7,0,1.2-0.5,1.2-1.2S73.7,35.9,73,35.9z"/>
	</g>
	<g>
		<path class="st4" d="M37.1,64c-0.7,0-1.2,0.5-1.2,1.2V73c0,0.7,0.5,1.2,1.2,1.2s1.2-0.5,1.2-1.2v-7.8C38.3,64.6,37.8,64,37.1,64z"
			/>
	</g>
	<g>
		<path class="st4" d="M10.2,37.1c0-0.7-0.5-1.2-1.2-1.2H1.2c-0.7,0-1.2,0.5-1.2,1.2s0.5,1.2,1.2,1.2H9
			C9.7,38.3,10.2,37.8,10.2,37.1z"/>
	</g>
	<g>
		<path class="st4" d="M57,18.4c0.3,0,0.6-0.1,0.8-0.4l5.5-5.5c0.5-0.5,0.5-1.2,0-1.7s-1.2-0.5-1.7,0l-5.5,5.5
			c-0.5,0.5-0.5,1.2,0,1.7C56.4,18.3,56.7,18.4,57,18.4z"/>
	</g>
	<g>
		<path class="st4" d="M57.8,56.2c-0.5-0.5-1.2-0.5-1.7,0s-0.5,1.2,0,1.7l5.5,5.5c0.2,0.2,0.5,0.3,0.8,0.3c0.3,0,0.6-0.1,0.8-0.3
			c0.5-0.5,0.5-1.2,0-1.7L57.8,56.2z"/>
	</g>
	<g>
		<path class="st4" d="M16.4,56.2l-5.5,5.5c-0.5,0.5-0.5,1.2,0,1.7c0.2,0.2,0.5,0.3,0.9,0.3s0.6-0.1,0.9-0.3l5.5-5.5
			c0.5-0.5,0.5-1.2,0-1.7S16.9,55.7,16.4,56.2z"/>
	</g>
	<g>
		<path class="st4" d="M16.4,18.1c0.2,0.2,0.5,0.4,0.9,0.4s0.6-0.1,0.9-0.4c0.5-0.5,0.5-1.2,0-1.7l-5.5-5.5c-0.5-0.5-1.2-0.5-1.7,0
			s-0.5,1.2,0,1.7L16.4,18.1z"/>
	</g>
	<g>
		<path class="st4" d="M61.9,26.6c0.2,0.5,0.6,0.7,1.1,0.7c0.2,0,0.3,0,0.5-0.1l7.2-3c0.6-0.3,0.9-1,0.6-1.6c-0.3-0.6-1-0.9-1.6-0.6
			l-7.2,3C61.9,25.3,61.6,26,61.9,26.6z"/>
	</g>
	<g>
		<path class="st4" d="M49.2,62.5c-0.3-0.6-1-0.9-1.6-0.6c-0.6,0.3-0.9,1-0.6,1.6l3,7.2c0.2,0.5,0.6,0.7,1.1,0.7
			c0.2,0,0.3,0,0.5-0.1c0.6-0.3,0.9-1,0.6-1.6L49.2,62.5z"/>
	</g>
	<g>
		<path class="st4" d="M12.3,47.6c-0.3-0.6-1-0.9-1.6-0.6l-7.2,3C3,50.3,2.7,51,3,51.6c0.2,0.5,0.6,0.7,1.1,0.7c0.2,0,0.3,0,0.5-0.1
			l7.2-3C12.3,49,12.6,48.2,12.3,47.6z"/>
	</g>
	<g>
		<path class="st4" d="M25,11.7c0.2,0.5,0.6,0.7,1.1,0.7c0.2,0,0.3,0,0.5-0.1c0.6-0.3,0.9-1,0.6-1.6l-3-7.2c-0.3-0.6-1-0.9-1.6-0.6
			c-0.6,0.3-0.9,1-0.6,1.6L25,11.7z"/>
	</g>
	<g>
		<path class="st4" d="M71,49l-7.3-2.8c-0.6-0.2-1.3,0.1-1.5,0.7c-0.2,0.6,0.1,1.3,0.7,1.5l7.3,2.8c0.1,0.1,0.3,0.1,0.4,0.1
			c0.5,0,0.9-0.3,1.1-0.8C71.9,50,71.7,49.3,71,49z"/>
	</g>
	<g>
		<path class="st4" d="M27.4,62.2c-0.6-0.2-1.3,0.1-1.5,0.7L23,70.2c-0.2,0.6,0.1,1.3,0.7,1.6c0.1,0.1,0.3,0.1,0.4,0.1
			c0.5,0,0.9-0.3,1.1-0.8l2.8-7.3C28.3,63.1,28,62.4,27.4,62.2z"/>
	</g>
	<g>
		<path class="st4" d="M3.2,25.2l7.3,2.8c0.1,0.1,0.3,0.1,0.4,0.1c0.5,0,0.9-0.3,1.1-0.8c0.2-0.6-0.1-1.3-0.7-1.5L4.1,23
			c-0.6-0.2-1.3,0.1-1.5,0.7C2.3,24.3,2.6,25,3.2,25.2z"/>
	</g>
	<g>
		<path class="st4" d="M46.9,12c0.1,0.1,0.3,0.1,0.4,0.1c0.5,0,0.9-0.3,1.1-0.8l2.8-7.3c0.2-0.6-0.1-1.3-0.7-1.5
			C50,2.3,49.3,2.6,49,3.2l-2.8,7.3C46,11.1,46.3,11.8,46.9,12z"/>
	</g>
</g>
<g>
	<path class="st4" d="M37.3,61.8c-13.7,0-24.9-11.2-24.9-24.8s11.1-24.9,24.9-24.9s24.8,11.1,24.8,24.9S51,61.8,37.3,61.8z"/>
	<path class="st2" d="M37.3,14c12.7,0,23,10.3,23,23c0,12.7-10.3,23-23,23c-12.7,0-23-10.3-23-23C14.4,24.2,24.7,14,37.3,14
		 M37.3,10.2c-14.8,0-26.8,12-26.8,26.8s12,26.8,26.8,26.8s26.8-12,26.8-26.8S52.1,10.2,37.3,10.2L37.3,10.2z"/>
</g>
</svg>
